<?xml version="1.0" encoding="UTF-8"?>
<svg id="_Слой_2" data-name="Слой 2" xmlns="http://www.w3.org/2000/svg" viewBox="0 0 21.17 20.71">
  <defs>
    <style>
      .cls-1 {
        fill: #1c1d1c;
        stroke-width: 0px;
      }
    </style>
  </defs>
  <g id="_Слой_1-2" data-name="Слой 1">
    <path class="cls-1" d="M10.29,20.71c-2.75,0-5.33-1.08-7.27-3.03-1.56-1.57-2.56-3.54-2.89-5.71,0,0-.13-1.39-.13-1.61C0,4.65,4.62,0,10.29,0c.12,0,.25,0,.37,0,5.46.2,9.9,4.96,9.89,10.61v3c-.59-.25-1.23-.38-1.88-.38-.83,0-1.64.21-2.37.62v-3.5c0-3.21-2.67-5.83-5.96-5.83h0c-1.59,0-3.08.61-4.2,1.7-1.13,1.1-1.75,2.57-1.75,4.13,0,.61.09,1.21.27,1.76.29.87.8,1.69,1.48,2.36,1.13,1.1,2.62,1.7,4.21,1.7.78,0,1.42.64,1.42,1.43v3.09h-1.49Z"/>
    <path class="cls-1" d="M18.67,20.71c-1.38,0-2.5-1.13-2.5-2.52s1.12-2.52,2.5-2.52,2.5,1.13,2.5,2.52v2.52h-2.5Z"/>
  </g>
</svg>